<svg width="40" height="40" viewBox="0 0 40 40" fill="none" xmlns="http://www.w3.org/2000/svg">
<path d="M2.12728 11.0183C5.41818 4.48184 12.1817 0 20 0C25.3908 0 29.918 1.9819 33.3818 5.2091L27.6454 10.9455C25.5728 8.9637 22.9362 7.95454 20 7.95454C14.7908 7.95454 10.3817 11.4727 8.8091 16.2C8.409 17.4 8.18172 18.6818 8.18172 20C8.18172 21.3182 8.409 22.6 8.8091 23.8C10.3817 28.5272 14.7908 32.0454 20 32.0454C22.6908 32.0454 24.9818 31.3364 26.7728 30.1364C28.8908 28.7182 30.3 26.6 30.7636 24.1H20V16.3636H38.8362C39.0728 17.6726 39.2 19.0364 39.2 20.4546C39.2 26.5454 37.0182 31.6726 33.2362 35.1546C29.9272 38.2092 25.4 40 20 40C12.1817 40 5.41818 35.5182 2.12728 28.9818C0.77276 26.2818 0 23.2272 0 20C0 16.7728 0.77276 13.7182 2.12728 11.0183Z" fill="black"/>
</svg>
